<svg version="1.2" xmlns="http://www.w3.org/2000/svg" viewBox="0 0 71 75" width="71" height="75">
	<title>New Project</title>
	<style>
		.s0 { fill: #48b17b } 
		.s1 { fill: #327f51 } 
		.s2 { fill: #cfffc7 } 
		.s3 { fill: #260029 } 
	</style>
	<g id="&lt;Group&gt;">
		<g id="&lt;Group&gt;">
			<path id="&lt;Path&gt;" class="s0" d="m66.2 41c4-4.1 5.6-11 3-16.2-0.9-1.9-4-5-6.9-6.8-1.9-2.3-0.9-2.8-2.8-5.2-1.9-2.2-3.7-4.5-6-6.4-5.4-4.6-11.8-6.3-18.8-5.7-7.1 0.7-14.1 4.3-19.7 8.6-7.8 6.1-14.5 14.7-13.6 24.6 1.1 10.7 9.8 19 18.2 25.7 3.1 2.4 5.7 3.4 9.1 5.4 6.1 3.7 15.3 7.4 22.3 8.7 6.5 1.2 13.5 1.5 15.9-5.7 3-8.7 2.8-18.5-0.7-27z"/>
			<path id="&lt;Path&gt;" class="s1" d="m61.1 20.9c0-0.8 0.2-1.7 0.9-1.8 0.3-0.1 0.6 0.1 0.9 0.2q1.4 0.7 2.8 1.4c0.4 0.2 0.8 0.4 1 0.8 0.2 0.4 0.1 0.8 0 1.2-0.3 1.9-1.5 12.3-3.6 11.4-2.1-0.9-2-11.2-2-13.2z"/>
			<path id="&lt;Path&gt;" class="s1" d="m64.7 36.1c1.6-0.1 3.2-0.7 4.5-1.7-0.2 2.1-1.6 4.1-3.5 5-1.2-0.7-1.8-2.1-1.6-3.4z"/>
			<path id="&lt;Path&gt;" class="s1" d="m38.2 26.1c6.9-1.2 14.3 3.5 16.2 10.2-0.8 0.7-0.6 2-0.8 3-0.4 2.1-2.5 3.4-4.4 4.3-4.9 2.1-10.4 2.8-15.4 1-3.9-1.5-9.7-6.4-8.8-11.3 0.8-4.3 9.6-6.6 13.2-7.2z"/>
			<path id="&lt;Path&gt;" class="s2" d="m58.6 58.1c1.7 2.2 3.9 4.1 6.2 5.6 0.4 0.2 0.8 0.4 1.2 0.3 0.5-0.1 0.8-0.8 1-1.4q0.7-2.8 1.3-5.7c0.2-1.3 0.3-2.8-0.7-3.6-1.1-0.8-2.6-0.1-3.7 0.5q-2.4 1.3-4.8 2.5c-0.4 0.3-0.9 1-0.4 1.2z"/>
		</g>
		<g id="&lt;Group&gt;">
			<path id="&lt;Path&gt;" class="s3" d="m62.4 17.8c-15.8-41.9-82.3 0.2-55 30.6 0.5 0.6 1.3-0.1 0.9-0.7-6.3-9.5-7.7-19.2-0.7-28.9 4.4-6.2 11.2-12 18.2-15.1 14.6-6.6 29.3 0.4 35.9 14.4 0.2 0.5 0.9 0.1 0.7-0.3z"/>
			<path id="&lt;Path&gt;" class="s3" d="m66.6 68.6c-5 11.2-25.1 2-32.5-1.6-10.7-5-19.9-11.9-27.1-21.3-0.5-0.6-1.3 0.1-0.9 0.8 8.4 12.5 22.2 20.5 36.1 25.6 6.4 2.4 23.2 6.5 25-3.4 0.1-0.4-0.5-0.5-0.6-0.1z"/>
			<path id="&lt;Path&gt;" class="s3" d="m55.5 38.3c-3.2-15-19.6-14.8-30.6-7.9-0.6 0.4-0.2 1.4 0.6 1.1 4.5-2 9.2-3.7 14.2-4.2 7.6-0.7 13.1 3.9 15.2 11.1 0.1 0.4 0.7 0.3 0.6-0.1z"/>
			<path id="&lt;Path&gt;" class="s3" d="m52.6 39.9c-4.9 3.5-10.1 6-16.3 4-6-1.9-9.2-7-10.8-12.7-0.2-0.7-1.1-0.5-1 0.1 1 13.5 20.3 20.4 28.7 9.1 0.2-0.4-0.3-0.8-0.6-0.5z"/>
			<path id="&lt;Path&gt;" class="s3" d="m59.7 17.7c-1.7 5.6-1.5 12.9 1.9 18 0.2 0.3 0.7 0 0.6-0.3-1.9-6.2-3-11-1.6-17.5 0.1-0.5-0.8-0.7-0.9-0.2z"/>
			<path id="&lt;Path&gt;" class="s3" d="m61.1 17.9c9.2 3.8 11.4 14.2 5 21.7-0.4 0.5 0.4 1.3 0.9 0.8 7.3-7.7 4.3-19.9-5.6-23.4-0.6-0.2-0.9 0.6-0.3 0.9z"/>
			<path id="&lt;Path&gt;" class="s3" d="m66.8 39.8c-1.4-1.9-3.2-3.8-5.1-5.2-0.4-0.3-0.7 0.2-0.5 0.5 1.4 1.9 3.3 3.8 5.1 5.3 0.4 0.3 0.8-0.2 0.5-0.6z"/>
			<path id="&lt;Path&gt;" class="s3" d="m66.1 40.1c3.1 10.8 2.1 19.2-0.4 30-0.1 0.4 0.4 0.8 0.7 0.3 5-8.8 4.3-21.3 0.3-30.5-0.2-0.3-0.7-0.1-0.6 0.2z"/>
			<path id="&lt;Path&gt;" class="s3" d="m15.7 14.3c-5.1 2.8-8.8 8-9.9 13.7-0.1 0.5 0.9 0.7 1 0.2 1.4-5.6 4.5-9.9 9.3-13.3 0.3-0.2-0.1-0.7-0.4-0.6z"/>
			<path id="&lt;Path&gt;" class="s3" d="m6.5 31.8c0.4 2.3 0.7 4.5 1.4 6.8 0.1 0.4 0.7 0.3 0.6-0.1-0.2-2.4-0.9-4.6-1.4-6.8-0.1-0.4-0.7-0.3-0.6 0.1z"/>
			<path id="&lt;Path&gt;" class="s3" d="m47.2 54c-5.6-1.7-11.4 0-17.1-1.9-0.3-0.1-0.6 0.4-0.3 0.6 5.2 2.9 11.6 0.4 17.2 1.9 0.3 0.1 0.6-0.5 0.2-0.6z"/>
			<path id="&lt;Path&gt;" class="s3" d="m70 54.5c-2-2.9-7-1.6-9.6 0-2.8 1.6-6.5 5.1-6.9 8.5 0 0.5 0.6 0.8 1 0.5 2.3-1.8 3.6-4.7 6-6.5 1.4-1.1 3-1.8 4.8-2 1.6-0.1 2.9 0.6 4.4 0.4 0.4-0.1 0.5-0.6 0.3-0.9z"/>
			<path id="&lt;Path&gt;" class="s3" d="m66.9 64c-4.5 3-8.5 0.8-12.5-1.6-0.6-0.3-1.2 0.4-0.8 0.9 2.8 4.2 10.5 5.1 14.2 1.7 0.6-0.6-0.2-1.5-0.9-1z"/>
			<path id="&lt;Path&gt;" class="s3" d="m66.6 22.1c-1.3 1.9-2 4.3-2.6 6.6-0.5 1.9-1.1 4.2-0.6 6.2 0.1 0.5 0.7 0.4 0.8 0 0.6-2.4 0.6-4.7 1.3-7.1 0.5-1.8 1.3-3.6 1.8-5.5 0.1-0.4-0.5-0.5-0.7-0.2z"/>
			<path id="&lt;Path&gt;" class="s3" d="m67.2 21.8c-1.5-1.5-3.3-2.4-5.2-3.2-0.4-0.2-0.8 0.1-0.9 0.4-2.1 5-1.5 11.4 1 16.1 0.2 0.5 1 0.3 0.9-0.3-1.3-5.4-2.7-9.9-0.6-15.3q-0.5 0.2-0.9 0.4c1.9 0.5 3.5 1.5 5.1 2.4 0.4 0.2 0.9-0.2 0.6-0.5z"/>
			<path id="&lt;Path&gt;" class="s3" d="m63.9 19.2c-0.6-0.5-1.1-1.1-1.8-1.3-0.7-0.1-1.3 0.2-1.6 0.8-0.6 0.9-1.5 3.2-0.6 4.1 0.2 0.2 0.5 0.2 0.7 0 0.5-0.6 0.3-1.7 0.6-2.4 0.2-0.6 0.5-1.3 1.1-1.1 0.4 0.2 0.7 0.5 1.2 0.6 0.4 0.2 0.8-0.4 0.4-0.7z"/>
			<path id="&lt;Path&gt;" class="s3" d="m60 19.5c-0.1 0.6-0.1 1.2 0 1.7 0.1 0.4 0.6 0.5 0.7 0.1 0.2-0.6 0.2-1.1 0.3-1.7 0-0.6-1-0.7-1-0.1z"/>
			<path id="&lt;Path&gt;" class="s3" d="m66.8 23.4c1.6 1.8 1.9 5.2 2.1 7.6 0.1 2.9-2.5 3.5-4.3 5.1-0.6 0.5 0.2 1.5 0.8 0.9 2.3-1.9 4.7-1.8 4.8-5.4 0-2.7-0.4-7.2-2.8-8.9-0.4-0.4-1 0.2-0.6 0.7z"/>
			<path id="&lt;Path&gt;" class="s3" d="m67.6 26.5c0.5 2.8 0.3 5.2-1.3 7.5q0.5 0.2 1 0.5 0.7-3 1.4-6-0.5 0-1.1-0.1c0.1 1.6-0.1 3-0.6 4.5q0.6 0.1 1.1 0.1c-0.2-2.8-0.1-5.6 0.4-8.3q-0.7-0.1-1.4-0.2c-0.1 2.3-0.5 4.4-1.1 6.5q0.6 0.1 1.3 0.2c-0.2-2.1 0-4.1 0.5-6.1q-0.6-0.2-1.3-0.5-0.7 2.5-1.6 4.9 0.7 0 1.4 0.1c-0.2-1.8 0.3-3.4 1.2-4.9q-0.6-0.2-1.3-0.4c-0.3 2.3-0.9 4.6-1.7 6.8q0.7 0.2 1.3 0.4c0.5-2.3 1.3-4.4 2.3-6.4q-0.6 0.1-1.2 0.2c0.6 0.7 0 2.6-0.1 3.5q-0.2 1.7-0.4 3.3c-0.1 0.8 0.9 1 1.3 0.5 0.5-0.7 1-1.3 1.4-2.1q-0.6-0.3-1.3-0.6c-0.1 0.6-0.3 1.2-0.5 1.7-0.2 0.5-1.6 2.3 0 1.4q-0.5-0.5-1-0.9c-1 2.4 0.1-0.4 0.3-0.9 0.2-0.9-1.1-1.4-1.4-0.6q-0.7 1.8-1.5 3.6 0.7 0.2 1.4 0.5 0.3-1.1 0.6-2.2-0.7-0.2-1.4-0.3-0.2 1.7-0.5 3.5c0 0.6 0.6 0.9 1.1 0.7 0.7-0.3 1-0.6 1.4-1.2q-0.6-0.3-1.3-0.7-0.4 0.6-0.8 1.2 0.6 0.3 1.3 0.7 0.1-0.3 0.3-0.5-0.6-0.3-1.1-0.6 0.1 0.4 0.1 0.9 0.6-0.5 1.1-0.9c-0.3-0.9-1.7-0.5-1.5 0.4 0.2 0.6 0.3 0.8 1 1.1 0.5 0.2 1.1-0.3 1-0.9q-0.1-0.5-0.1-0.9c-0.1-0.5-0.7-0.8-1.2-0.6-0.8 0.4-1.2 0.9-1.2 1.8 0 0.7 0.7 1.2 1.3 0.7 0.6-0.6 1-1.1 1.2-1.9 0.3-0.7-0.8-1.4-1.3-0.7q-0.4 0.4-0.8 0.7 0.5 0.4 1 0.8 0.2-1.7 0.5-3.5c0.1-0.8-1.3-1.1-1.5-0.3q-0.3 1.1-0.6 2.2c-0.2 0.9 1 1.4 1.4 0.5q0.8-1.8 1.5-3.5-0.7-0.3-1.4-0.6c-0.3 1-1.7 3.7-0.1 4.4 1.3 0.6 2.2-1.5 2.6-2.4 0.2-0.6-0.4-1.2-1-0.9-1 0.5-2.3 2.3-0.5 2.9 1.8 0.6 2.7-3.1 3-4.2 0.2-0.7-0.8-1.5-1.3-0.7-0.4 0.8-0.9 1.4-1.4 2.1q0.7 0.2 1.3 0.5c0.2-1.9 0.5-3.7 0.6-5.5 0.1-1 0.2-1.6-0.4-2.4-0.4-0.5-1-0.3-1.2 0.2-1.1 2.2-1.8 4.4-2.4 6.7-0.2 0.8 1.1 1.1 1.4 0.3 0.9-2.3 1.5-4.7 1.8-7.2 0.1-0.7-0.9-1.1-1.3-0.5-1.1 1.9-1.6 3.8-1.5 6 0.1 0.7 1.2 0.7 1.4 0.1q1-2.4 1.6-4.9c0.3-0.9-1.1-1.4-1.3-0.5-0.6 2.3-0.8 4.5-0.6 6.8 0.1 0.7 1.2 0.8 1.4 0.1 0.7-2.2 1.1-4.5 1.2-6.8 0-0.9-1.2-1-1.4-0.2-0.4 2.9-0.4 5.8-0.1 8.7 0.1 0.6 0.9 0.7 1.1 0.1 0.6-1.7 0.8-3.3 0.7-5.1-0.1-0.5-1-0.6-1.2-0.1q-0.7 3-1.4 6c-0.1 0.6 0.6 1.1 1 0.5 1.7-2.5 2.3-5.4 1.2-8.3-0.1-0.5-0.8-0.2-0.8 0.2z"/>
			<path id="&lt;Path&gt;" class="s3" d="m63.7 35.6c0.3 0.3 0.7 0.4 1 0.1q-0.5-0.3-1-0.6c0 0.5 0.1 0.8 0.3 1.2q0.5-0.4 1-0.8c-0.4-0.3-0.5-0.4-1-0.4-0.4 0-0.6 0.4-0.5 0.7 0.2 0.4 0.3 0.5 0.7 0.8 0.5 0.3 1.4-0.3 1-0.9-0.2-0.2-0.2-0.5-0.4-0.8-0.2-0.7-1.4-0.1-1 0.5q0 0.1 0 0.2 0-0.3 0.1-0.5c-0.3-0.1-0.4 0.3-0.2 0.5z"/>
			<path id="&lt;Path&gt;" class="s3" d="m55.3 38.2c-2.9-3.8-6.4-7.2-11.3-8.1-5.8-1.2-13 0.2-18.7 1.5-0.7 0.2-0.5 1.3 0.2 1.2 4.6-0.4 9.1-1.5 13.6-1.8 6.9-0.3 11.2 2.8 15.7 7.6 0.3 0.4 0.8-0.1 0.5-0.4z"/>
			<path id="&lt;Path&gt;" class="s3" d="m54.8 38.4c-5.2 1.6-10.3 3.5-15.8 2.4-5.4-1.1-8.7-4.3-12.2-8.4-0.5-0.5-1.3 0.1-1 0.7 5.5 11.6 19.4 10.4 29.2 6.1 0.4-0.2 0.2-0.9-0.2-0.8z"/>
			<path id="&lt;Path&gt;" class="s3" d="m53.2 36.6q-1.1-0.8-2.3-1.6-0.3 0.7-0.7 1.4 1 0.7 2 1.4 0.5-0.7 1-1.4-0.5-0.1-0.9-0.2c-1.1-0.2-1.7 1.3-0.6 1.6q0.2-0.1 0.4-0.3 0.1 0.8 0.2 1.7 0.6-0.1 1.1-0.1-0.1-0.9-0.1-1.7c-2.4 0.2-4.6 0.2-7 0.1-1.1-0.1-1.3 1.7-0.2 1.8q1.6 0 3 0.4 0-0.9 0-1.9-1.5 0.1-2.9 0.2c-1.2-0.2-1.4 1.7-0.2 1.9q1.7 0.5 3.5 0.2 0-0.9-0.1-1.9c-2.3 0.5-4.5 0.6-6.8 0.5-1.2 0-1.4 1.8-0.2 2q0.6 0 1.1 0.1-0.2-0.8-0.5-1.7c-0.6 0.7-5.4-1.6-6.2-1.9-1.4-0.6-3-1.2-4.2-2-1.3-1-1.9-0.7-0.5-1.6 1.6-1.1 6.4-0.6 8.1-0.6 3.5 0.2 7.1 1.1 9.8 3.5q0.6-0.7 1.3-1.5c-2.3-1.7-4.6-2.9-7.4-3.8q-0.2 1-0.4 1.9c0.7 0.1 7 2.5 3.1 1q-0.3 1-0.5 1.9 2.7 1.5 5.3 0-0.4 0.9-0.9 1.8 1.3 0.9 2.5 1.8 0.3-0.8 0.6-1.6c-5.6 0.3-10.5-1.1-15.2-4.2q-0.2 0.9-0.3 1.7c2.7-0.8 6.7 1.1 9.3 1.9q0.3-0.9 0.5-1.8-3.3-0.5-6.1-2.3-0.3 0.9-0.6 1.8c2.3 0.2 4.2 0.8 6.2 2q-0.1-0.8-0.1-1.5c-1.5 1-6.3-2.3-7.4-3q-0.3 0.9-0.6 1.8c3.4 0.6 6.2 1.5 9.2 3.1q0.5-0.8 1-1.7c-3.8-1.1-7.5-2.4-11.2-3.9q-0.2 0.9-0.4 1.9c3.3 0.8 6.2 1.9 9.3 3.6q0-0.9 0.1-1.8c-2.9 1.6-10.2-1.8-13.2-2.9q-0.2 1-0.4 2c0.6 0.1 7.4 2.7 3.8 0.9-1.6-0.9-3.4-1.5-5.1-2.4q-0.4 1-0.7 2c4.5 1 7.2 5.3 12 5.5q-0.2-1-0.4-2c-3.2 1.3-7-1.3-9.7-2.9q-0.5 0.9-1 1.8c3.6 1.7 7.1 3.2 11.1 3.5 1.1 0.1 1.6-1.6 0.4-1.9-3.3-0.9-6.4-2-9.5-3.4q0.1 0.9 0.3 1.7c2.1-1.9 7.7 1.6 9.4 2.9q0.3-0.9 0.6-1.8c-3.3-0.5-6.1-1.7-8.7-3.7q-0.4 0.9-0.7 1.8 0.9 0.2 1.9 0.5c-1.1-0.4-1.6 1.1-0.6 1.6 1.3 0.7 2.4 1.2 3.8 1.1 0.3 0 0.7-0.3 0.8-0.6 0.9-3.2-3.3-4.2-5.7-4.6-1.1-0.2-1.5 1.3-0.7 1.8 2.9 2.3 6.1 3.6 9.8 4.1 1 0.2 1.4-1.2 0.6-1.8-2.6-2.2-8.8-5.6-11.8-2.8-0.6 0.5-0.4 1.4 0.3 1.7 3.1 1.4 6.2 2.5 9.5 3.4q0.2-1 0.5-2c-3.8-0.3-7.1-1.8-10.6-3.5-1-0.5-1.9 1.2-0.9 1.8 3.5 2.2 7.7 4.9 11.8 3.2 0.9-0.4 0.7-1.9-0.3-2-4.4-0.1-7.3-4.4-11.5-5.4-1.3-0.3-1.9 1.4-0.7 2 2.1 1 7.6 4.9 9.6 2.4 0.3-0.4 0.2-0.9 0-1.3-1.6-2.2-4.9-3.1-7.4-3.6-1.2-0.2-1.5 1.6-0.5 1.9 3.5 1.3 11.2 4.9 14.8 2.9 0.6-0.4 0.8-1.4 0.1-1.8-3.3-1.8-6.6-3.1-10.2-3.9-1.2-0.2-1.5 1.5-0.5 2 3.7 1.5 7.4 2.8 11.2 3.9 1 0.2 1.9-1.2 0.9-1.8-3.3-1.7-6.6-2.8-10.2-3.5-1-0.1-1.5 1.3-0.7 1.8 2.4 1.6 7 4.8 9.8 2.9 0.5-0.4 0.4-1.3-0.1-1.6-2.3-1.4-4.4-2.1-7.1-2.4-1-0.1-1.6 1.3-0.7 1.8 2.3 1.3 4.4 2.1 7 2.6 1.1 0.2 1.5-1.6 0.4-1.9-3.2-1-7-3-10.4-1.9-0.7 0.2-1.1 1.2-0.4 1.7 5.1 3.4 10.6 4.8 16.6 4.5 0.8 0 1-1.1 0.6-1.6-1-1.2-1.8-1.8-3.3-2.4-1.1-0.4-1.8 1.1-0.9 1.8q0.1 0 0.1 0.1c0.4 0.2 0.9 0.2 1.3-0.1q0.1-0.1 0.2-0.1c0.3-0.4 0.5-1.1 0.1-1.4-1.5-1.5-3.8-1.7-5.7-2.2-1.1-0.2-1.4 1.6-0.4 2 1.4 0.5 2.8 1.1 4.3 0.8 0.4-0.1 0.8-0.5 0.8-0.9 0.3-3.3-5-4.5-7.3-4.8-1.2-0.1-1.6 1.6-0.5 2 2.6 0.8 4.8 2 6.9 3.6 0.9 0.6 2.2-0.7 1.4-1.5-2.9-2.6-6.4-3.8-10.3-4.1-3.8-0.3-9.4-0.4-12.9 1.3-0.4 0.2-0.6 0.7-0.5 1.1 0.3 3.3 14.2 9.6 16.5 7.1 0.5-0.6 0.3-1.6-0.6-1.7q-0.5-0.1-1.1-0.2-0.1 1-0.2 2c2.6 0.1 4.9-0.1 7.4-0.6 1-0.2 1-1.9-0.1-1.9q-1.8 0.3-3.5-0.2-0.1 0.9-0.2 1.9c2 0.2 1.4 0.2 3.4-0.2 1.1-0.3 1-1.7-0.1-1.9q-1.5-0.4-3-0.3-0.1 0.9-0.2 1.8c2.5 0 5 0 7.5-0.2 1-0.1 0.8-1.5-0.1-1.7-0.9-0.2-1-0.2-1.9 0.2-0.8 0.4-0.5 1.5 0.3 1.6q0.3 0.1 0.7 0.1c0.3 0.1 0.6-0.1 0.8-0.3q0.2-0.3 0.4-0.6c0.2-0.3 0.2-0.6 0.1-0.9-0.6-0.9-0.6-1-1.6-1.3q-0.3 0.8-0.6 1.6 0.4 0.1 0.9 0.2c0.9 0.2 1.5-0.8 0.8-1.5-1.4-1.2-0.9-0.9-2.7-1.6-0.8-0.3-1.5 1-0.7 1.4q1.3 0.7 2.5 1.3c0.7 0.4 1.4-0.5 0.7-1z"/>
			<path id="&lt;Path&gt;" class="s3" d="m39.4 39.3c-2.6 1-5-0.4-6.9-2-1.3-1.1-2.5-2.8-4.2-3.2-0.4-0.1-0.8 0.2-0.6 0.6 1.1 2 3.8 4.1 5.8 5.2 2 1.2 4.3 1.5 6.4 0.5 0.7-0.3 0.2-1.3-0.5-1.1z"/>
			<path id="&lt;Path&gt;" class="s3" d="m26.8 33.4c0.9 0.6 1.8 1.2 2.8 1.8 0.7 0.5 1.5-0.7 0.8-1.2-0.6-0.4-1.1-0.9-1.5-1.4q-0.5 0.6-1 1.1c1.2 0.7 2.6 1.3 3.9 1.6 0.5 0.1 0.7-0.6 0.5-0.9-0.8-1.2-2.5-2-3.9-2.1-0.8 0-1.1 0.9-0.5 1.4 0.5 0.5 1 1 1.7 1.5q0.4-0.6 0.8-1.2c-1-0.6-2-1.2-3-1.7-0.7-0.2-1.2 0.7-0.6 1.1z"/>
			<path id="&lt;Path&gt;" class="s3" d="m45.2 31.9c-2.2-0.4-4.4-0.8-6.7-0.9-1.1 0-2.1 0.2-2.8 1.2-0.4 0.5 0.1 1.1 0.7 1.1 1.6-0.1 2.9 0.3 4.1 1.3q0.2-0.8 0.4-1.6c-1.8 0.4-3.3 0.1-4.7-0.9q0.1 0.6 0.1 1.3c0.5-0.4 3.8 1.4 4.4 1.6 1 0.4 2.2 1.1 3.2 0.7 1.2-0.5 1.2-1.9 0.1-2.5-0.4-0.2-0.9 0.4-0.7 0.8-0.3-0.5-2.3-0.9-2.9-1.2-0.9-0.3-1.9-0.8-2.9-1.1-1-0.3-1.9-0.3-2.5 0.6-0.3 0.4-0.2 0.9 0.2 1.2 1.8 1.3 3.8 1.7 6 1.2 0.7-0.1 0.9-1 0.3-1.5-1.5-1.3-3.4-1.8-5.4-1.3q0.4 0.5 0.8 1.1c0.8-1 3-0.4 4.1-0.3q2.1 0.2 4.1 0.3c0.7 0 0.8-1 0.1-1.1z"/>
			<path id="&lt;Path&gt;" class="s3" d="m45.7 31.9c-1.7 0.1-6.1-2.9-7.2-0.3-0.1 0.3 0.1 0.6 0.4 0.6 0.5 0 1-0.1 1.5-0.1 0.8 0 1.5 0.2 2.1 0.5 1.2 0.4 2.2 0.7 3.4 0.5 0.8-0.2 0.6-1.2-0.2-1.2z"/>
			<path id="&lt;Path&gt;" class="s3" d="m43 31.4c-1.5-0.2-3.8-0.6-5.1 0.3-0.3 0.2-0.1 0.6 0.2 0.7 0.6 0.3 1.3 0.1 2 0.1q1.4-0.1 2.8-0.1c0.7 0.1 0.8-0.9 0.1-1z"/>
			<path id="&lt;Path&gt;" class="s3" d="m48.7 38.9c-1.3 0.7-3 0.2-4.5 0-1.4-0.3-2.8-0.5-4.2-0.4-0.5 0.1-0.5 0.8-0.1 1 1.8 0.8 3.9 1 5.8 1.2 1.4 0.1 2.5 0 3.7-0.8 0.5-0.4-0.1-1.3-0.7-1z"/>
			<path id="&lt;Path&gt;" class="s3" d="m46.2 39c0.2 0.9-2.6 0.5-2.9 0.4-0.9-0.1-1.8-0.1-2.6 0-0.4 0-0.5 0.5-0.2 0.7 1.5 1.1 7.9 2 6.8-1.4-0.2-0.6-1.2-0.3-1.1 0.3z"/>
			<path id="&lt;Path&gt;" class="s3" d="m52 37.2c-4-1.8-9.1-2.2-13.4-1.2-0.5 0.1-0.5 0.9 0.1 1 4.3 0.6 8.5 0.1 12.8 1.4 0.8 0.3 1.2-0.8 0.5-1.2z"/>
			<path id="&lt;Path&gt;" class="s3" d="m33.5 37.8c-0.7-0.6-1.6-1-2.3-1.6-0.6-0.5-1.1-1.3-2-1.4-0.3 0-0.5 0.2-0.5 0.5-0.2 0.9 0.9 1.7 1.5 2.3 0.9 0.6 1.9 1.2 2.9 1.3 0.6 0.1 0.8-0.7 0.4-1.1z"/>
			<path id="&lt;Path&gt;" class="s3" d="m60.7 17.3q-0.1 0-0.2 0c-0.3 0-0.5 0.1-0.7 0.4-0.3 0.7-0.3 1.4 0.2 2 0.2 0.3 0.7 0.1 0.7-0.3 0.2-0.6 0.6-1.3 0.3-1.9-0.1-0.1-0.2-0.2-0.3-0.2z"/>
			<path id="&lt;Path&gt;" class="s3" d="m61.2 18.5q0.5-0.3 0.3-0.8 0 0 0-0.1c-0.1-0.2-0.4-0.3-0.6-0.3-1 0.2-1.1 1.5-0.7 2.2 0.3 0.4 0.7 0.3 0.8-0.1 0-0.2 0.1-1 0.2-1q-0.3-0.1-0.6-0.2 0 0.1 0 0.1 0-0.4 0.1-0.8c-0.5 0.5-0.1 1.3 0.5 1z"/>
			<path id="&lt;Path&gt;" class="s3" d="m64.7 37c-0.5-0.7-1-1.3-1.5-2-0.5-0.7-0.9-1.5-1.4-2.1-0.2-0.2-0.7 0-0.6 0.3 0.4 1.6 1.7 3.2 2.9 4.3 0.3 0.4 0.9-0.1 0.6-0.5z"/>
			<path id="&lt;Path&gt;" class="s3" d="m68.7 30.7c-1.2 0.3-1.9 1.1-2 2.3 0 0.4 0.3 0.7 0.6 0.7 1 0 1.6-0.4 2.1-1.2 0.3-0.6-0.5-1.1-1-0.9-0.7 0.3-1 1.1-0.7 1.8 0.3 0.6 1.2 0.5 1.4-0.1q0.2-0.4 0.4-0.8c0.3-0.7-0.7-1.4-1.2-0.8-0.5 0.4-1 0.8-1.5 1.1-0.5 0.2-0.9 0.4-1.2 0.8-0.3 0.3-0.1 0.7 0.2 0.8 1.3 0.5 2.8-0.7 3.6-1.7q-0.7-0.4-1.4-0.7-0.1 0.4-0.3 0.8 0.7 0 1.4-0.1 0 0.1-0.1 0.2-0.5-0.5-1-0.9-0.3 0.2-0.5 0.4 0.3 0.4 0.5 0.7c0.1-0.6 0.4-1.1 1-1.4 0.6-0.2 0.3-1.1-0.3-1z"/>
			<path id="&lt;Path&gt;" class="s3" d="m68.4 33.8c-0.8 0.5-1.6 1.2-2.5 1.6-0.6 0.4-1.6 0.5-1.9 1.3-0.1 0.1 0 0.4 0.2 0.5 0.8 0.5 1.7-0.2 2.5-0.7 0.9-0.5 1.7-1.1 2.3-2 0.2-0.4-0.2-0.9-0.6-0.7z"/>
			<path id="&lt;Path&gt;" class="s3" d="m54.7 37.6c-0.9 0.4-1.6 1.4-2.3 2.1-0.7 0.8-1.6 1.5-2.1 2.4-0.2 0.3 0.1 0.7 0.4 0.5 1-0.5 1.8-1.4 2.5-2.2 0.7-0.7 1.6-1.5 1.9-2.4 0.1-0.3-0.2-0.5-0.4-0.4z"/>
			<path id="&lt;Path&gt;" class="s3" d="m54.7 38c-0.9 0.8-1.6 1.8-2.4 2.6-0.9 0.9-1.9 1.6-2.7 2.4-0.3 0.3 0 0.6 0.3 0.5 1.2-0.4 2.3-1.3 3.2-2.2 0.8-0.8 1.8-1.8 2.1-2.9 0.1-0.3-0.2-0.6-0.5-0.4z"/>
			<path id="&lt;Path&gt;" class="s3" d="m67.5 61.1c-2.9 3.2-6.5-2.4-8.9-3.5-0.6-0.3-1.4 0.5-1 1.1 1.8 2.9 8.7 8.1 11 3 0.4-0.8-0.7-1.2-1.1-0.6z"/>
			<path id="&lt;Path&gt;" class="s3" d="m66.9 63.3c-3.4 1.7-6.3-0.2-7.8-3.4-0.6-1.2-2.6-0.3-2 0.9 1.8 3.7 7.1 7.4 10.5 3.3 0.4-0.4-0.2-1-0.7-0.8z"/>
			<path id="&lt;Path&gt;" class="s3" d="m64.3 63.4q-1.7-1.2-3.4-2.2c-0.9-0.6-2.1-1.5-3.2-1.4-0.6 0-1 0.6-0.6 1.2 0.6 0.9 1.8 1.2 2.8 1.7q1.7 1 3.4 2c0.9 0.5 1.8-0.7 1-1.3z"/>
			<path id="&lt;Path&gt;" class="s3" d="m63.3 63.3q-1.6-0.3-3.2-0.9c-0.8-0.3-1.8-1-2.7-1-0.5 0.1-1.2 0.6-0.8 1.1 0.6 1 1.8 1.4 2.9 1.7q1.8 0.5 3.6 0.8c1.1 0.1 1.2-1.5 0.2-1.7z"/>
			<path id="&lt;Path&gt;" class="s3" d="m62.8 63.9c-1.3 0.1-2.7 0.1-4-0.3-1-0.4-1.6-1.3-2.5-1.7-0.4-0.2-0.8 0.2-0.9 0.6-0.2 1.3 1.3 2.3 2.4 2.7 1.6 0.7 3.4 0.6 5.1 0.4 0.9-0.1 0.9-1.7-0.1-1.7z"/>
			<path id="&lt;Path&gt;" class="s3" d="m61.7 63.4q-1.3-0.4-2.6-1c-0.7-0.3-1.4-1-2.2-0.8-0.4 0.1-0.7 0.5-0.6 0.8 0.2 1 1.2 1.4 2 1.8 1 0.4 2 0.7 3 0.9 0.9 0.1 1.3-1.4 0.4-1.7z"/>
			<path id="&lt;Path&gt;" class="s3" d="m59.7 61.7c-0.8-0.5-1.6-1.1-2.6-1.3-0.6-0.1-0.9 0.7-0.6 1.1 0.6 0.8 1.4 1.2 2.2 1.7 1 0.6 2-0.9 1-1.5z"/>
			<path id="&lt;Path&gt;" class="s3" d="m56.7 60.8c-0.6 0.7-1 1.2-0.9 2 0 0.5 0.6 0.7 0.9 0.5 0.8-0.3 1.1-1 1.5-1.7 0.5-0.9-1-1.5-1.5-0.8z"/>
			<path id="&lt;Path&gt;" class="s3" d="m66.4 64.8c-0.5-0.1-0.9-0.1-1.3-0.2-0.4-0.1-0.7-0.3-1.1-0.3-0.3 0-0.6 0.3-0.4 0.6 0.4 1 1.9 1.4 2.8 0.9 0.4-0.2 0.4-0.9 0-1z"/>
			<path id="&lt;Path&gt;" class="s3" d="m64.7 54.4c0.1 1.6 0.4 3.1 0.5 4.7 0.2 2 0 4 0.1 6 0 0.7 0.8 0.7 0.9 0.1 0.7-3.2 0.5-7.8-0.7-10.9-0.1-0.4-0.8-0.3-0.8 0.1z"/>
			<path id="&lt;Path&gt;" class="s3" d="m54.6 62.4q-0.1 0.2-0.1 0.3c-0.2 0.4 0 0.8 0.3 1q0.1 0.1 0.2 0.2c0.3 0.3 0.8 0 1-0.3q0.1-0.1 0.1-0.3c0.1-0.2 0.1-0.7-0.1-0.9q-0.1-0.1-0.3-0.2c-0.3-0.3-0.9-0.3-1.1 0.2z"/>
		</g>
	</g>
</svg>