<svg version="1.2" xmlns="http://www.w3.org/2000/svg" viewBox="0 0 52 45" width="52" height="45">
	<title>New Project</title>
	<style>
		.s0 { fill: #df71a0 } 
	</style>
	<path id="&lt;Compound Path&gt;" fill-rule="evenodd" className="s0" d="m35.8 28.5c0.5 0.4 0.2 1-0.3 1-0.8 0-1.6-0.2-2.4-0.6-1.5-0.1-3-0.2-4.6 0-3.5 0.5-5.6 2.3-6.9 5.5-0.1 0.4-0.4 0.5-0.7 0.5q-0.2 0.8-0.6 1.6c-0.3 0.5-1 0.4-1-0.2-0.1-3.1 0.2-5.7-1.4-8.5-1.2-2.1-3-3.6-4.7-5.2-0.5-0.1-1-0.2-1.5-0.4-0.4-0.3-0.4-0.9 0.1-1q0.3-0.1 0.5-0.1c0.2-0.2 0.5-0.3 0.8-0.1 2.3-0.4 4.6-0.1 7-1.4 3-1.5 4.2-4 5.2-7 0.1-0.5 0.8-0.4 0.9 0 0.1 1.3-0.2 2.5-0.7 3.7q0.2 0.1 0.2 0.3c-0.1 3.1 1.5 5.8 3.7 7.8 1.9 1.8 4.5 2.5 6.4 4.1zm-5.8-1.5c-0.9-0.8-1.8-1.6-2.4-2.3-1.9-2-3-4.4-2.9-7-0.8 1.1-1.8 2.1-3 2.8-1.6 1-3.9 2-6.2 2.2 2.7 2.3 5.1 5.6 5.5 9 1.9-2.8 5.5-4.6 9-4.7zm-10.1 13.4c-0.5 1.1-1.5 4.2-3.2 3.8-0.2 0-0.4-0.4-0.3-0.6 0.3-0.6 0.8-1.1 1.1-1.6 0.5-0.7 0.9-1.5 1.3-2.2 0.3-0.6 1.3-0.1 1.1 0.6zm-5.6-9.8c-1.2 0.9-3.1 1.9-4.6 1.4-0.4-0.1-0.4-0.7 0-0.9 1.3-0.5 2.6-0.6 3.9-1.4 0.6-0.5 1.3 0.4 0.7 0.9zm-5.5-9.1c-2.7-0.6-5.9-1.7-8.2-3.4-0.4-0.3 0-1 0.5-0.8 2.7 0.8 5.2 2.4 8 3.1 0.6 0.1 0.4 1.2-0.3 1.1zm6.1-9.3c-0.5-0.7 0.4-1.4 0.9-0.8 0.8 1 1.6 2.4 1.1 3.8-0.1 0.4-0.7 0.4-0.9 0.1-0.2-0.5-0.2-1-0.3-1.5-0.2-0.6-0.5-1.1-0.8-1.6zm14.4-2.3c0.3-3.1 1.4-6.2 2.3-9.2 0.2-0.7 1.2-0.3 1 0.4-0.7 2.9-1.2 6.2-2.4 9-0.2 0.5-1 0.3-0.9-0.2zm5.8 4.9c0.7-0.3 1.2 0.7 0.5 1-1.1 0.5-2 1.5-3.1 1.9-0.4 0.2-0.8-0.3-0.5-0.7 0.7-1 1.9-1.8 3.1-2.2zm16.3 21.1c-2.9 0-6.1-0.5-8.8-1.7-0.5-0.2-0.4-0.9 0.2-0.9 2.9 0.3 5.7 1.3 8.7 1.4 0.8 0 0.7 1.1-0.1 1.2zm-19.8 2.6c0.2 0.9 0.6 1.9 0.5 2.9 0 0.4-0.6 0.6-0.9 0.3-0.6-0.7-0.8-1.7-0.9-2.6-0.3-1-0.4-2.1-0.7-3.1-0.2-0.7 0.9-1 1.1-0.4 0.4 1 0.7 1.9 0.9 2.9z"/>
</svg>