<svg version="1.2" xmlns="http://www.w3.org/2000/svg" viewBox="0 0 48 56" width="48" height="56">
	<title>New Project</title>
	<style>
		.s0 { fill: #2b609b } 
	</style>
	<path id="&lt;Compound Path&gt;" fill-rule="evenodd" className="s0" d="m39.6 34.5c-3.2 0.3-5.9 0.2-8.7 2.2-2.1 1.5-3.5 3.5-5 5.5-0.1 0.5-0.2 1.1-0.4 1.6-0.2 0.5-0.9 0.4-1-0.1q-0.1-0.2-0.1-0.4c-0.3-0.1-0.4-0.4-0.3-0.7q0.1 0 0.1-0.1c-0.5-2.5-0.6-4.8-2.1-7.2-1.9-3-4.5-4-7.8-4.7-0.5-0.1-0.5-0.8 0-0.9 1.3-0.3 2.6-0.1 3.7 0.3q0.1-0.1 0.3-0.2c3.2-0.2 5.9-2 7.9-4.5 0.9-1.3 1.8-2.7 2.4-4.2 0.4-1 0.6-2.1 1.3-3.1 0.2-0.3 0.9-0.2 1 0.2 0 0.9-0.1 1.7-0.4 2.6 0.1 1.7 0 3.3 0.4 5 1 3.6 3 5.5 6.5 6.6 0.3 0.1 0.5 0.4 0.5 0.7q0.9 0.1 1.8 0.4c0.4 0.2 0.4 1-0.1 1zm-5-1.3c-2.2-1.1-3.9-3.1-4.8-5.6-0.4-1.1-0.7-2.4-0.8-3.7-0.8 1.2-1.6 2.2-2.4 3.1-1.9 2.1-4.3 3.5-7.1 3.7 1.4 0.8 2.6 1.9 3.5 3.1 1.2 1.6 2.3 3.8 2.7 6.1 2.2-3.1 5.4-5.9 8.9-6.7zm13.4 3.2c0 0.3-0.3 0.5-0.7 0.4-0.6-0.3-1.1-0.7-1.7-1q-1.1-0.6-2.3-1.1c-0.7-0.3-0.3-1.4 0.5-1.1 1.1 0.3 4.5 1.1 4.2 2.8zm-13.9 3.9c1 1.1 2.2 3 1.9 4.5-0.1 0.5-0.7 0.7-0.9 0.2-0.3-0.6-0.5-1.3-0.7-2q-0.5-1-1.2-1.9c-0.5-0.6 0.4-1.3 0.9-0.8zm-9 6.6c-0.4 3-1.2 6.2-2.7 8.8-0.2 0.4-1 0.2-0.9-0.3 0.6-2.9 2-5.6 2.5-8.6 0.1-0.7 1.2-0.6 1.1 0.1zm-7.2-6.9c-0.5 0.2-1.1 0.3-1.6 0.5-0.6 0.2-1.1 0.6-1.5 1-0.6 0.5-1.3-0.4-0.8-0.9 1-0.9 2.3-1.8 3.7-1.5 0.5 0 0.7 0.7 0.2 0.9zm-6.9-13.3c-3.2-0.1-6.5-1-9.6-1.5-0.7-0.1-0.7-1.2 0.1-1.1 3.2 0.4 6.6 0.6 9.7 1.6 0.6 0.2 0.3 1-0.2 1zm4.6-6.6c-0.3-0.7 0.7-1.1 1.1-0.5 0.6 1.1 1.6 1.9 2.2 3 0.2 0.4-0.3 0.8-0.7 0.6-1.1-0.7-2.1-1.9-2.6-3.1zm18.6-9.7c0-3.1 0.8-6.1 0.6-9.2 0-0.7 1-0.9 1.1-0.2 0.4 3.2 0.1 6.5-0.8 9.6-0.2 0.5-0.9 0.2-0.9-0.2zm9.8 11.1c-0.6 0.7-1.6 1-2.5 1.3-1 0.3-2.1 0.6-3.2 1-0.7 0.2-1.2-0.7-0.5-1.1 1-0.5 2-0.9 3-1.2 0.9-0.3 1.9-0.8 2.8-0.8 0.4 0 0.6 0.5 0.4 0.8z"/>
</svg>