<svg version="1.2" xmlns="http://www.w3.org/2000/svg" viewBox="0 0 155 75" width="155" height="75">
	<title>New Project</title>
	<style>
		.s0 { fill: #f2c45d } 
		.s1 { fill: #ed6c45 } 
		.s2 { fill: #df71a0 } 
		.s3 { fill: #ffd67c } 
		.s4 { fill: #260029 } 
	</style>
	<g id="&lt;Group&gt;">
		<g id="&lt;Group&gt;">
			<path id="&lt;Path&gt;" class="s0" d="m47.1 34.9c-7.4-11.2 8.4-23.1 18.1-24.3 5.8-0.7 11.7-0.2 17.4-1.2 6.4-1.2 12.2-2.8 17.9-5.4-6.6 6.4-16.2 10-18.5 15 11.9-4.7 21.2 1.8 32.8 4.6 5.9 1.3 12.5 3.4 18.7 2.5 5.8-0.8 8.6-0.8 13.5-2.4-10.9 15.9-22.2 15.9-39 21.8 4.3 3.8 10.5 8.5 16 6.5-5.4 6.8-20.1 8.1-28.5 7.1-7.3-0.8-17.5-6-24-4.4 3.4 3.8 7.2 9.2 11.8 11-10.2 3.2-21.4-6.2-31.3-8-6.4-1.1-11.7 0-12.5-8.1-0.7-7.7 3.1-12.6 9.1-16.6z"/>
			<path id="&lt;Path&gt;" class="s1" d="m46.8 32.3c2.9-6.7 16.5-10.1 23.5-8.6-1.7 2.5-5 5.8-7 8.3 11.5-10.3 30.4 3.3 43.4-1.7-7.3 4.5-22.4 7.5-30.5 7.5 2.9 1.7 6.7 4 8.1 7.2-5.6 1.5-12.8 3.7-22.4 3.2-3.1-6.3-13.3-9.2-15.5-15.4z"/>
			<path id="&lt;Path&gt;" class="s2" d="m11.3 19.6c2.9-1.5 9.5 1.9 20.5 6.2 3.2-4.6 12.3-11 18.9-14.2 1.1 2.3-4.2 18.8-4.1 23.5 4.3 7.2 11.6 6.9 15.7 14-4.7 3.6-13.3 2.5-19.2 3.2-0.5 5.5-3.2 15.8-4.4 20.1-2-3.2-9.3-16.5-12.4-17.5-8-2.3-17.3 2.8-20.6 3.8-6.6-3.2 11.1-15.3 12.6-19.7-3.3-6.5-8.1-14.3-7-19.4z"/>
			<path id="&lt;Path&gt;" class="s3" d="m133.5 26.1c-6.2 0.9-12.8-1.2-18.7-2.5-11.6-2.8-22.6-7.3-34.5-2.6 2.3-5 13.6-10.6 20.2-17-5.7 2.6-11.5 4.2-17.9 5.4-5.7 1-11.6 0.5-17.4 1.2-6.2 0.7-12 3.6-15.5 10.1l-1.7 4.2c8.3-8.2 18.9-10.2 30.5-9.7-2.9 2.6-6.6 6-8.9 9.5 8.3-3.1 19.9-2 28.3 0.1 9.3 2.3 15.7 9.9 25.8 9.2-5.8 2.6-12.8 6.6-18.3 9.9 1.3 0.7 2.8 1.2 4.3 1.6 14.5-4.6 27.6-7.7 37.3-21.8-4.9 1.6-7.7 1.6-13.5 2.4z"/>
		</g>
		<path id="&lt;Compound Path&gt;" fill-rule="evenodd" class="s4" d="m154.6 19q-1.3 1.2-2.7 2.2c-4.4 7.3-10 13.1-17.9 17.2-4.9 2.5-10.2 4.4-15.5 5.8-1.3 0.3-7.8 1.1-8 1.8-1 2.8 13.8 4.4 14.7 4.5 1 0.2 1.3 1.3 0.6 1.9-7.5 7.5-15.6 10.1-26 8.3-5.7-1-11.3-2.9-17-3.9-2.5-0.5-6.9-2-6.2 0.6 0.5 2.3 8 7.9 9.3 9 0.5 0.5 0.5 1.7-0.4 1.8-15.2 1.2-27.7-10.3-42.4-9.5-0.4 2.4-1 4.9-1.5 7.3-0.5 2.7-0.8 5.6-2.1 8.1 0.2 0.7-1 1.3-1.5 0.7-2.9-3.2-5.3-6.9-7.7-10.5-1.8-2.7-4-5.4-5.1-8.5-7.4 2.1-16.5 4.6-24.2 4-0.8-0.1-0.8-1.3 0-1.5q0.4-1 1-1.9 0-0.1 0.1-0.2c1.7-3 4.1-5.6 6.2-8.2 2.7-3.5 5.3-7.1 8.1-10.5-2-4.1-4.5-8.2-6.3-12.5q-0.2-0.1-0.3-0.3c-0.4-0.9-0.9-1.6-1.1-2.5q0-0.5 0-1-0.1-0.2-0.1-0.4 0 0 0-0.1-0.4-1.1-0.6-2.3c-0.2-1 1-1.5 1.7-1 2.8-0.3 6.4 1.2 8.9 2.1 3.8 1.3 7.6 2.8 11.4 4.2 1.9-2.5 5.9-4.5 8.3-6 4-2.6 7.7-5.6 11.6-8.2 0.7-0.5 1.5-0.1 1.7 0.5 0.2 0.2 0.3 0.3 0.3 0.6 0.2 2.1 0 4.1-0.4 6.2 11.7-14.6 33.1-6.5 49.7-15.2q0.2-0.4 0.5-0.7c0.3-0.4 0.7-0.4 1.1-0.2q0.4-0.2 0.8-0.5c0.7-0.4 1.3 0.7 0.8 1.2-0.7 0.6-1.3 1-2 1.5-4.2 7.9-13.5 11.7-20.9 15.8-0.6 0.4-1.1-0.6-0.5-1 3.8-2.4 7.7-4.5 11.3-7 2.3-1.6 4.1-3.4 5.8-5.3-5 2.3-10.5 3-16.4 3.2-13.9 0.6-23.7 1-31.3 13q0 0.2-0.1 0.5c-0.6 2.4-1.1 4.8-1.6 7.3 5.1-5.8 15-7.1 22-7.5 1 0 1.5 1 0.8 1.7 1-1-1.9 2.2-3.9 4.6 2-0.9 5-1 6.8-1.1 10.8-0.5 21.3 3.6 32.1 3 1 0 1.6 1.3 0.6 1.7-7.2 3.1-14.5 6.2-22.4 6.8-1 0.1-5.2-0.1-6-0.4 0.9 0.8 7.1 6.2 7.5 6.5 0.6 0.4 0.4 1.4-0.3 1.5-8 1.1-13.9 4.1-21.6 3.4 0 0.5-0.3 0.9-0.8 1-0.8 0.2-1.6 0.4-2.3 0.5-0.6 0.4-1.3 0.6-1.9 0.5-5.1 1.1-10.3 1.9-15.5 2.3q-0.1 1.7-0.4 3.3c7.8-0.7 14.5 2.2 21.9 5.2 1.9 0.8 15.7 6.6 17.2 3.6 0.2-0.3-8.3-8.5-9.5-10-0.5-0.5 0-1.2 0.7-1.2 10.9-0.4 20.7 4.1 31.4 4.5 4.2 0.1 8.3-0.7 12.1-2.6 7.6-4 5.5-3.6 1.8-5.1-4.2-1.8-8-2.5-11.9-5.1-0.6-0.5-0.4-1.4 0.3-1.6 16.3-3.4 30.8-8.6 40.7-21.3-20.6 10.6-44.4-12.6-66-3.1-1 0.4-1.6-1-0.7-1.5 9.1-4.9 18.9-3 28.4-0.3 15.1 4.3 27.8 8.9 41.6 0.1q0.8-1.2 1.5-2.6c0.4-0.8 1.8 0 1.4 0.8q-0.1 0.2-0.2 0.3c0.7 0.1 1.2 1 0.5 1.7zm-106.9 14.3q-0.1 0.6-0.3 1.2 0.1 0.1 0.2 0.2c3 2.8 6.3 5.1 9.6 7.6 1.3 1.1 3 2.3 4.4 3.7 0.7 0.2 1.1 0.8 1.3 1.5q0.2 0.2 0.4 0.5c5.7 0.5 10.4-0.4 16.2-2.1 1.2-0.4 3.5-1 3.6-1.3 0.3-0.9-7.1-6.2-7.7-6.6-0.7-0.5-0.3-1.7 0.6-1.5 8.6 1 17.2-0.4 25.2-4.1 0.5-0.3 1.1-0.4 1.6-0.5-1.8-0.2-4.7-0.2-5.3-0.3-10.6-1.2-24-6.2-33.5 0.8-1 0.7-1.9-0.5-1.2-1.4 4-4.3 8.9-7.7 1.7-6.6-6.2 1.1-13.3 3.2-16.8 8.9zm-4.5 18.7c5.2-0.8 10.3-1.5 15.3-2.5 0.4-0.5 0.8-0.9 1.3-1.2-0.1-0.2-0.2-0.5-0.2-0.8-1.8-1.6-3.5-3.3-5.4-4.7-2.8-2.2-5.6-4.3-8.2-6.8-0.3-0.3-0.4-0.6-0.3-0.9-0.8-3.1 0.4-6.5 1.2-9.5 1.1-4.2 2.3-8.2 2.6-12.5-2.2 2-5.3 3.5-7.7 5-2.3 1.5-4.6 2.9-6.9 4.5-1.2 0.8-2.3 2-3.6 2.8-0.2 0.5-0.8 1-1.5 0.8-3.8-0.9-7.3-2.7-10.9-4.1-1.6-0.6-3.2-1.1-4.8-1.5q-0.3 0.3-0.8 0.4c-0.4 0.1-1.2 0.1-1.5 0 0-0.1 0 0 0 0.1-0.2-0.1-0.1 0.1 0 0-0.1 0.1-0.1 0.2-0.1 0.1 0 0.4 0 1-0.1 1.4q0 0.1 0 0.1c2 4.7 5.1 9 6.6 13.9 0.4 0.2 0.7 0.7 0.3 1.3 0 0.3-0.2 0.5-0.5 0.7-2.3 3.5-5.2 6.6-7.8 9.9-2 2.6-3.9 5.3-5.8 8q0 0.3 0 0.6 0 0 0.1 0c0.4 0.1 0.6 0.3 0.7 0.6 2.8-0.4 5.6-0.8 8.3-1.4 3.9-0.8 7.9-2 11.9-2.5 0.6-0.1 0.9 0.3 1 0.7 2.9 2.7 4.8 6.8 6.9 10.1 1.6 2.4 3.3 4.7 4.8 7.2 0.4-4.4 1.6-8.7 2.5-13-0.5-0.3-0.4-1.1 0.2-1.3q0.4-2.2 0.6-4.5c0.1-1.1 1.1-1.4 1.8-1zm-31.5-30.8q0 0 0 0 0 0 0 0zm113.2-16.8q-0.1-0.5-0.1-1c-0.1-1.4 0.7-2.6 2.1-2.6 1.3-0.1 2.5 1.1 2.3 2.4q0 0.5-0.1 1c-0.1 1-0.8 1.6-1.7 1.9-0.4 0.1-0.8 0-1.1-0.1-0.7-0.2-1.3-0.9-1.4-1.6z"/>
	</g>
</svg>